<?xml version="1.0" encoding="UTF-8" standalone="no"?>
<!DOCTYPE svg PUBLIC "-//W3C//DTD SVG 1.1//EN" "http://www.w3.org/Graphics/SVG/1.1/DTD/svg11.dtd">
<svg width="100%" height="100%" viewBox="0 0 24 24" version="1.1" xmlns="http://www.w3.org/2000/svg" xmlns:xlink="http://www.w3.org/1999/xlink" xml:space="preserve" xmlns:serif="http://www.serif.com/" style="fill-rule:evenodd;clip-rule:evenodd;stroke-linejoin:round;stroke-miterlimit:2;">
    <path d="M12,5C10.08,5 8.5,6.58 8.5,8.5C8.5,10.42 10.08,12 12,12C13.92,12 15.5,10.42 15.5,8.5C15.5,6.58 13.92,5 12,5M12,7C12.823,7 13.5,7.677 13.5,8.5C13.5,9.323 12.823,10 12,10C11.177,10 10.5,9.323 10.5,8.5C10.5,7.677 11.177,7 12,7M5.5,8C4.129,8 3,9.129 3,10.5C3,11.44 3.53,12.25 4.29,12.68C4.65,12.88 5.06,13 5.5,13C5.94,13 6.35,12.88 6.71,12.68C7.08,12.47 7.39,12.17 7.62,11.81C6.89,10.86 6.5,9.7 6.5,8.5L6.5,8.22C6.2,8.08 5.86,8 5.5,8M18.5,8C18.14,8 17.8,8.08 17.5,8.22L17.5,8.5C17.5,9.7 17.11,10.86 16.38,11.81C16.5,12 16.63,12.15 16.78,12.3C16.94,12.45 17.1,12.58 17.29,12.68C17.65,12.88 18.06,13 18.5,13C18.94,13 19.35,12.88 19.71,12.68C20.47,12.25 21,11.44 21,10.5C21,9.129 19.871,8 18.5,8M12,14C9.66,14 5,15.17 5,17.5L5,19L19,19L19,17.5C19,15.17 14.34,14 12,14M4.71,14.55C2.78,14.78 0,15.76 0,17.5L0,19L3,19L3,17.07C3,16.06 3.69,15.22 4.71,14.55M19.29,14.55C20.31,15.22 21,16.06 21,17.07L21,19L24,19L24,17.5C24,15.76 21.22,14.78 19.29,14.55M12,16C13.53,16 15.24,16.5 16.23,17L7.77,17C8.76,16.5 10.47,16 12,16Z" style="fill:white;fill-rule:nonzero;"/>
</svg>
