<?xml version="1.0" encoding="UTF-8" standalone="no"?>
<!DOCTYPE svg PUBLIC "-//W3C//DTD SVG 1.1//EN" "http://www.w3.org/Graphics/SVG/1.1/DTD/svg11.dtd">
<svg width="100%" height="100%" viewBox="0 0 24 24" version="1.1" xmlns="http://www.w3.org/2000/svg" xmlns:xlink="http://www.w3.org/1999/xlink" xml:space="preserve" xmlns:serif="http://www.serif.com/" style="fill-rule:evenodd;clip-rule:evenodd;stroke-linejoin:round;stroke-miterlimit:2;">
    <path d="M17.75,21.16L15,18.16L16.16,17L17.75,18.59L21.34,15L22.5,16.41L17.75,21.16M10,21L12.8,21C13.04,21.41 13.33,21.79 13.65,22.13C13.29,22.66 12.69,23 12,23C10.9,23 10,22.11 10,21M3,20L3,19L5,17L5,11C5,7.9 7.03,5.18 10,4.29L10,4C10,2.9 10.9,2 12,2C13.11,2 14,2.9 14,4L14,4.29C16.97,5.18 19,7.9 19,11L19,12.08L18,12L17,12.08L17,11C17,8.24 14.76,6 12,6C9.24,6 7,8.24 7,11L7,18L12,18C12,18.7 12.12,19.37 12.34,20L3,20Z" style="fill-rule:nonzero;"/>
</svg>
