<?xml version="1.0" encoding="UTF-8" standalone="no"?>
<!DOCTYPE svg PUBLIC "-//W3C//DTD SVG 1.1//EN" "http://www.w3.org/Graphics/SVG/1.1/DTD/svg11.dtd">
<svg width="100%" height="100%" viewBox="0 0 24 24" version="1.1" xmlns="http://www.w3.org/2000/svg" xmlns:xlink="http://www.w3.org/1999/xlink" xml:space="preserve" xmlns:serif="http://www.serif.com/" style="fill-rule:evenodd;clip-rule:evenodd;stroke-linejoin:round;stroke-miterlimit:2;">
    <path d="M11,18L13,18L13,16L11,16L11,18M12,6C9.8,6 8,7.8 8,10L10,10C10,8.9 10.9,8 12,8C13.1,8 14,8.9 14,10C14,12 11,11.8 11,15L13,15C13,12.8 16,12.5 16,10C16,7.8 14.2,6 12,6M19,5L19,19L5,19L5,5L19,5M19,3L5,3C3.9,3 3,3.9 3,5L3,19C3,20.1 3.9,21 5,21L19,21C20.1,21 21,20.1 21,19L21,5C21,3.9 20.1,3 19,3Z" style="fill:white;fill-rule:nonzero;"/>
</svg>
