<?xml version="1.0" encoding="UTF-8" standalone="no"?>
<!DOCTYPE svg PUBLIC "-//W3C//DTD SVG 1.1//EN" "http://www.w3.org/Graphics/SVG/1.1/DTD/svg11.dtd">
<svg width="100%" height="100%" viewBox="0 0 24 24" version="1.1" xmlns="http://www.w3.org/2000/svg" xmlns:xlink="http://www.w3.org/1999/xlink" xml:space="preserve" xmlns:serif="http://www.serif.com/" style="fill-rule:evenodd;clip-rule:evenodd;stroke-linejoin:round;stroke-miterlimit:2;">
    <path d="M13.5,8L12,8L12,13L16.28,15.54L17,14.33L13.5,12.25L13.5,8M13,3C8.063,3 4,7.063 4,12L1,12L4.96,16.03L9,12L6,12C6,8.16 9.16,5 13,5C16.84,5 20,8.16 20,12C20,15.84 16.84,19 13,19C11.07,19 9.32,18.21 8.06,16.94L6.64,18.36C8.27,20 10.5,21 13,21C17.937,21 22,16.937 22,12C22,7.063 17.937,3 13,3" style="fill:white;fill-rule:nonzero;"/>
</svg>
