<?xml version="1.0" encoding="UTF-8" standalone="no"?>
<!DOCTYPE svg PUBLIC "-//W3C//DTD SVG 1.1//EN" "http://www.w3.org/Graphics/SVG/1.1/DTD/svg11.dtd">
<svg width="100%" height="100%" viewBox="0 0 24 24" version="1.1" xmlns="http://www.w3.org/2000/svg" xmlns:xlink="http://www.w3.org/1999/xlink" xml:space="preserve" xmlns:serif="http://www.serif.com/" style="fill-rule:evenodd;clip-rule:evenodd;stroke-linejoin:round;stroke-miterlimit:2;">
    <path d="M9.5,3C13.066,3 16,5.934 16,9.5C16,11.11 15.41,12.59 14.44,13.73L14.71,14L15.5,14L20.5,19L19,20.5L14,15.5L14,14.71L13.73,14.44C12.59,15.41 11.11,16 9.5,16C5.934,16 3,13.066 3,9.5C3,5.934 5.934,3 9.5,3M9.5,5C7,5 5,7 5,9.5C5,12 7,14 9.5,14C12,14 14,12 14,9.5C14,7 12,5 9.5,5Z" style="fill-rule:nonzero;"/>
</svg>
